<svg xmlns="http://www.w3.org/2000/svg" viewBox="319 344 2222 300" width="1045" height="141">
  <path fill="white" d="M0 0h2560v1301H0z"/>
  <path d="M195 39l3-1a367 367 0 01-1 8l-5 16h-1l1 9 7-2v3l-4 5c2 0 3 0 4-2h4l-1 4-4 2c-8 7-10 2-10 14l8 1 4 2 13-2-1 5 9 2 3-4h3v4c-2 2-4 3-7 3l2 2-2 1c-5 1-9 3-14 2l-2 5c-19 0-15 1-20-2v5l-1 3 2 3 8-2 1-1c3 0 6-2 9-1v-1h3l1 3-6 4c1 2 2 3 4 3l2-2 1-3c2-1 2-3 2-5h4l-2 6 3 2 1 8-3 2c-3 0-5-1-7-3h-9l-6 5a1102 1102 0 00-5 2l2 7h7l1 2-2 2-1 3 4 4h2c3-5 10-2 14-5v-2h2l-1 7c-2 1-4 3-5 6l-8 1 10 1v-2h2v4l5-1 1-2c0-4 3-7 5-10 2 0 4 2 3 4l-1 1c-1 4-3 7-2 11h-3v4l-3 1-1 8h4l5-4c1-8 4-7 8-8v2c1 2 3 3 5 3l3-4 1-3 3 1 1-1 1-5h5l-1 1c0 3-2 6 0 8l-3 2-2 5h-3l-1 5h-6c-7 7-7 6-13 7l-1 10h-3v3l5 1v3c3-1 6-3 10-1l1-4 1-1 3 2v8c-3 2-6 1-8 0l-3 4-3-1c-4 3-9 4-14 4l-2-1h-6l-1-4-7-2-3-1c0-2-1-4 1-5 3-1 6-1 8-4l3 1 5-1 1-2h6v-4h4l-1-4c-2 0-4 0-4 2h-8l-1 2-6-2-3 1-2-4h4l-1-2-5-1-4 4 1 2-9 3h3l2 2v4l-1 8-6 1 2 2 5 2 8-2 8 3c-2 3-6 4-9 4 0 2-2 2-3 2l-1 2h-2l1 5h4l1-2c3 0 4 3 4 5h7v-5l2-2 4 1 3-3h2v4l3 1-1 7-4 1 1 3h-3l-2 3a377 377 0 00-3 2h-5l-3-2h-6c-2-1 0-4 0-7h2l-1-3h-3l-2 3-6-2v-5l-2 1 1 2-4 6-5-2v-7l-4-1v7c-4 6-4 5-1 14a186 186 0 014-4h3l2-4 3 1-1 5h9c2 1 0 4 1 5l5 2v-4h2l1-3h3l-1 7 2 1-1 4a447 447 0 014 12l7 1c0-3 0-7 3-9v-4l3-1 3-2 1 10 1 6 2 1 2-1c-1-4-4-3 3-11l4-5 1-2h2v3h-2c1 2 4 3 6 3a373 373 0 017-11h3l-1 12-3 1v3l-3 4-3 1v2l-2 2-6 5h-2l-1 2h-2c-2 2-4 4-7 4l3 4 4-3h2l3 3 5-4 6-1-1-9h4v3h3l2-5 2-3h3v3l-2 1v6l3-1 2 1c0 3-2 4-4 6-3 1-6 2-7 5l-6 1c-2 1-3 2-3 4l2 7-2 2 1 4-2 2 3 3-5 2h-3v3h-2c-1 2-3 2-5 3l-1 4h-3v2h-5v3c-3 0-6-2-9-1-5 2-5 3-8-2h-11l-3 5h-2l1 4c7-2 8 3 12-2l6 1v-2h2l2-2c2 1 0 4 0 6l-2 1c1 2 3 2 5 2l2 3 5-2v-2l3-2h2v5l-3 2-1 2c-1 0-3 0-3 2h-2l-1-2-3 3v4l-2 2h2v3h-2l-1 4 1 3c-4-1-8 1-11 3v2l7 4 4-4 3 3a3437 3437 0 003-2l-2 5h-3l-1-3h-1v5h-2c-3 6-12 0-13-1h-4c-3-1-6-2-7-4h-3c-1 3-4 4-6 5l-3 2c3-1 7 2 9-1h2l2-2h5v4l6 2 5-2-1 6h-4l-1 1a1267 1267 0 00-8 3l3 3 7-2v5l8 1v-3l4 2v2l2 3-2 1c2 0 5 1 6-2l6-1v-8l3 2h4l1-2h2c0-2 2-2 4-2l1 2-1 1 3 4v-8l2-3c2-1 5-1 7 1v5h5v-5a1219 1219 0 015-3v-2c2-2 4 0 6 1l5-5h2l1-6h5l4-6h3l-3 9c2 2 1 4 0 5l-6 4v3l-3 4h-3v2c-2 0-5-1-6 1h-1l-6 4c-2 2-5 3-8 2l-2-1c-4 2-6 5-9 8v4l2 1 6-2 1 3 7-1 2 2 9-3 2 4 2-2c5 1 3-3 11-3v-2l1-1v-8c1 1 3 0 4 2l1 5 2-3v-2l3-2c2-2 3-3 6-3l1 3 3 1-4 8-1 2 1 1c-2 2-4 3-7 3l-1 3-11 5-4-1-2 3-1 12 2 1-3 6c2 2 6 1 8 2 0 2-2 5 1 5v2l4 1 8-5 3-9 2-2v-3l2-1v-3h3l-1 3 2 2-1 3c3 3 2 7-1 9v2h2v-4l3 2c1 1 0 3-1 4h3l3 11 6 1c1-2 4-3 7-3l-1-3-2-1-1-10a910 910 0 005-3v2h3c0-3-2-6 1-7v-4c3-3 1-7 2-10h2l2-4c3-3 3-8 5-13h2v-2h2c1 2 1 5 3 6l-1 4-1 2 2 4-2 2v4l2 1 4 3-1 5c3 1 0 2-1 3l3 4-3 3-9 1v1h9v3h2v2l-2 3h-5l5 1 2 4a645 645 0 005 4l1-3h3l-1 3h2l3-3v-2h3c1 2 1 5 3 4 2 0 3-3 4-5l5 1 1 2 3 3h4l1-4c2-2 5-2 7-1l2-1 1-6c0-2 2-2 3-2l-1 2v1l1 3-1 1h2l-1 5 4 3 7-1v-2l6-3v-6l4-4-2-1 4-7 1 6c2 1 2 4 2 7l-2 1v2l3 1v2l-4 2 3 5 3 1c0-2 0-5 3-6a968 968 0 013 3l1-2-2-3v-2l4 2-2-3v-2l2-1-1-4c2-1 5-3 7 0l-1 7h3v3h4v4l2-4h2v10l4 1v3l3-1h2l2-2-1-8-2-3h4l-1-12c3 1 3 3 3 5 2-1 3-3 2-5-1-1-3-3-2-5s3 0 4 1l3-2 1-9h2c0-5 2-8 5-12l2 1c-1 2-3 5-1 8h4l-2 9 3-1c-2 8-2 5-5 9l2 1-2 2 2 2 4-2 1 4 4 3 4-1-3 5-5 6h-3l1 5h-2l-1 1a589 589 0 0110 0l5 2v-8l2-1c-1-5 0-11 2-16l2 2 7-8c-3-11-4-11 0-14l1 5h7l-2-2v-6h5l4-4 4 3-1 6h2v2l4 5-1 3 4-1v3l2 2-1 2c2 0 4 2 5 3l2-1h2l-3 14 3-1v4l5 3-5 4v3h4l-2 8h3v-3l3-2v-2l3-3c1 5 3 10 2 16l1 3 1 2 1 4 5-2v5h1c0-2 2-1 4-1h6v3h6l4-2v3l4 3 4-1 3 3 6-3 1-1 1 2c1-2 3-2 5-3l2 4h5v3h4l2 2h3l4-3h2l3-4h4v-2l-3-1v-2l-3-2c1-2 2-5-1-6l4-7 2 1 1-1 5 2 2-2-1-1v-5l-2-1v-5l4 2 2-6v-5l3 1-1-4 5 2v-3l-2-1v-4h4v-5l3-3 2 3 1 7-2 1 2 3 3-2v3l-5 5v2h3l1-2 4 2-4 4-1 5 1 1c2-2 4-5 4-8l4-1-1 3-1 8-3 4 3-1 3-3-1 6c-4 4-2 3-1 7 1-2 1-5 3-6v-3c1-1 2-3 4-2l2-1v-4c2 1 3 3 2 5l2 1v5l3-4 1 5 2 6v-2h3v4c0 4-4 7-5 7 2 1 2 3 2 5h3l2-8 2-2h2l1 7 2-4h3l2-1 1-8c4-2 3-7 6-9l2-3 1 3 1 1c0 1 0 2-2 3l3 2v7a579 579 0 012-3h2v3c3-3 1-7 1-10 3-2 3-5 5-7h2v-4l3 1v-3l4-2-1-5 3-4v5l1 1 2-1 3 2c0-2-1-4-3-4l-1-6h2l1 3h2a275 275 0 00-1-3l-2-4h3l-2-5c2 1 4 3 6 1l-2 5h3c0-8-2-6 2-13l1 5c2-1 1-3 2-5l3 2c0-2 1-5-2-6v-2l3 1 1-2-2-2 3-3 2 2-1 2h2c-1 3 0 6 2 8v5a2213 2213 0 012 7l3-1 1 3 1 3 2 6c3-1 4 2 3 4l4-1c1-3 5-1 7-1v3l4 3c0 3 2 6 0 8 0 2-1 3-2 3l4 4v6a852 852 0 006-3v10c1 3-2 6-3 8h2l2-3c1-1 3 1 4 2v-5l3-1c0-5 1-10 5-13-1-8 0-9 2-12h3v-9c3-1 3-4 5-6 0-2 2-3 4-3v2l1 1-2 7h3v3l1 1v-4c3 0 5 2 8 4v6l3-3c0-3-3-5-3-8l3-2v-3h3l1-5c3-1 5-5 7-8l6 2 1 6 2-1a13017 13017 0 003 5l1-3 3-2v-7h4c1 3 0 7 3 9v7l3 1 1 8-2 5 3-3h1l2 2 1 3c1 4-3 7-3 12v5a683 683 0 017-5v7l3 2-1 4h1v12l3 2-1 4 1 11 2 2 5-1 1 2 2-2h-2v-10c2-1 3-3 3-6l2-2 1-3c2-2 3-5 3-8l2-2 4 1 1-5 3-4 2-8h2v5l3 1 3 4h3c0 7 3 6 1 13l2 2-1 6c1 3-1 4-2 6l1 1h3v1l6-1v5l3-4 1-10 4-1c-1-1 0-4 2-4l1-9 3 1 2-4c2-1 1-3 1-5h4l2 2v2l2 1c0 3 0 6 3 8l-2 5h2l3 2v3h1l-1-5 4 1v-6h2v-3h6v3h4c-2 4-1 8 0 12h3l1-3 2 3 2-1 2 1-1 5 4-7v-3l2 2c-1-5 1-9 1-13h2c1 0 1 0 0 0l2-6 2-6 3-2v4l2 1v9l-1 9 3-3h2l-1 6c2-1 3-2 3-4h2l-1 3 2 8h2l1 6 2 2c1-6 1-3 4-5l-1 5 3 3-3 7h2c0-3 2-4 5-3l1-8 1-1 1-6h2c0-2 0-4 2-5l1 3h1l2-6 2 4-1 1 1 4c2 1 1 4 1 6l3-1 3 8 2 2 1-1v-3l4-1v6l3 3h2l-1 7 4-2-2 11h1v-4h2l1 2-1 3h-3l5 2-3 6 1 4 4-3 1 1c-2 2-2 4-2 7l3-5h2l2-3h-4l-1 1c-1-2 0-4 1-6l-4-4v-4l3-1v-3l4-4v-3h2v3l4-2 1-2 3-1c-3-1-6-3-6-7l4 3v-2h-2l1-4 1-4 2 1 1-8 3-11 6-6v5c1-1 2-3 4-3l-1 5v6l2 1-1 4 4-1-3 8h-2l-2 3 1 3 2-4h2l2-6h3c-2 3-1 7-5 9v3l1-1 3-1-1 7 4 6-1 3-1 1 1 3 8-1 2-4v-3h5v2l-1 2c3 1 1 4 1 6l2-3 3 2c0-3-1-6 2-7h2l1 4 2 1-2 4h2v4l-2 2c2 1 3 5 5 3l-1-1 3-7c2 0 2 2 2 4l3 2v8l4-3c0-2-1-3-2-3l3-7 3 4-1 4 1 2h-1v1l3-3h2c0 2-2 3-4 4-1 4 4 6 2 10h2l2 3 3 1-1-5 4-4 4 2 4 1 2-5 2-1 1-8h3l-2-5 2-4 3-1v-9l3 1c-1-2-1-6 2-5l1 2h1l-1-11h3l-1-4c2-1 3-3 3-6v-3c3-1 2-5 3-7l3-3 1 7-1 6h4c-3 5 2 11-1 15l5-2c3 7 2 3 0 14l-6-2c1 4 6 4 9 2l-2 5 2 3 2-2 3 10 3-3 3 3-1 3 2 2-1 2 5-1 1-2h2l1 5 1-3 5-8c3 4 3 9 3 14l-2 2 2 1a487 487 0 011 1l5-7 3 1v-6l7-2-1 3h2v4h2l2 3h-2l-2 5 4 3 1-4h2l1 4h1l-1 2h6l-3-4 4-1-2-3 3-2c-1-1-1-2 1-3l-1-2 2-1v-3l2-1 1 7-1 2h3l-3 5 2 4 3-1v-4l3 1 1-8 3-2v-1c1-2 2-5 1-8l3-3 3 2c-1 2-2 4-1 6h-1l1 3a1522 1522 0 014 4l-4 5v2l6 2-3 3 2 1v-2h3l-3 4 2 1-2 2v3h-2l3 2-1 5h5v1h-4l-2 3 4-2-1 4 4-2v3h6l2-2v-3l2 3 1-1-1-2v-2h2l-2-4 2-2-1-1 2-4 2 6h3l2-4 2 3 1 3 2-2 2 6 1-1 2 1-2-6h3l2-3 6 1 1-3-3-1-7 1c-2-3-1-6-2-8l6 3-2-7 3-2v3h2v-3c2-2 4-1 7-1l-1-1-4-1-2 1v-3l5-1 3 2-3-6-4 2 1-3c-6-2-4-2-6-6l4 3 5-2 1-4h2v2l3-2 2 2v2h2v-2l1 3-4-1-3 2-1 8 4-2v-2l2-2-2-1 6-2-2 6h3l-1 3-2 3h4l-1 3-3 3 1 2-1 3v2h3l-1 1-2 4c3-1 5-3 5-6h3l-2 6 6 1-5 1-3 3v3h6l2-6c1-2 3-4 5-3l2-1-2-3 3-1-1-2 1 1 2-2 2 3h-2l1 3h3l4-4c-1-3-2-5 0-7l1 3h2l3-7 2 3c0-3-1-5 1-6 0-2-2-4 1-5l-2-3c-2-1 0-4 0-6l3 2 4-1v-1c-2 0-2-2-2-3l2 1-1-5h3v5l2 1v2l-2 2h3l-4 5 6-3v-2l2 3-2 3-1-1-4 3 4 3-4 1v2l3-1-2 2h3l2-2-1-2 4 2h-2v2l3-1c-7 6-7 4-8 8l4-2v7l1 1-3 1-1 3 2 1c1 0 4-3 6 0l-1 7 2-2v4h-3l-1 1c2-1 3 0 5 2-1 4-4 8-2 12h1v-2l1-2v-2l2 2 4-3-3-1 3-2v-2h1c0 3 2 2 4 1l-2-5c2 1 3 2 3 4l2-1-3-6 3-2 3 1v-5l3-2 1-6 3 1 6-4-2-4-4 5 3-3 1 1v3l-5-1v-3l-1-2h4l-2-3 3-1-2-4 4 2c-1-3-1-8 2-10 2 1 0 3 0 5l3 4v-4l1 1v4l-2 1 1 4 2-2h3v1h-4l-3 4 3-1 2 4-4-2-3 6 1 4 2-1 1 2v-4l4-1-2 6 4-1-2-1h3l-3-8 3 2h3l2 2c0-2 1-3 3-3v-1l-8-2 4-4v-2l-1 2-2 1v-1h1l-1-4v-5l2-1 3 2-1-5 3 1-1-3 5 1v-4l-7 1-2-2h3l6-5 3 3v3l3-1-3 3-1 3 1 2v-3h3l3-2-3 4h2l1 1-7 2 1 4 2 2-3 4h5l3-1-4 4-4 1c1 2 3 2 5 3l1 3 3-1-1 3 1 2 6-3c-2 2-6 3-3 5l7-6-1 5c-2-1-3 1-3 3h-4l1 3c-1 1-2 2 0 4l1-1c2 3 1 7 0 10h3l3-3-2 7-4 3 2 2 3-1c0 1 0 3-2 4l1 2 2-2 2 1v-2h-3l4-4v-3h-4l4-3-1-5 3-1v-2l3-2-3-2 1-4-1-11 2 1 3-2 1-5-3-2h2v-5l2-1-2-2v-3l1 1v-2l2-2v-2l-3-3 3 1 5-1-3-3v-3l2 4 3-3 6-1-5 4h3l-2 2v4l1-1v2h-2l-1 5 2-1v2l3-1-4 2 1 5-1 2h4l-1 3h3v-1h1l-1 3-3-1c0 2 1 4 3 5l-4 2c-1 3-4 5-2 8l4-4 2 3c2 0 3-3 3-4-3 1-5 0-7-2h6v-3l2 1h2l-2 3h2c1-5 3-9 2-14h3v-6l2-2-2-5 4 5v-5l6 3c1-1 1-2 3-1l-1-2c8-2 4-4 9-5l2-1-5 7h4l-3 3h-3l1 2-3 4 3-2 1 2 1-2 1-2c2 0 5-1 6 1v8h2l-1-2v-4l4 5 1-4c0-3 2-5 1-8h2c-1 2-1 6 2 7l-1 3-1-4-1 5 3-1v4c-2-2-5-1-7 1l3 2 1-3 2 3v2l-3 2h4l2-3h-2v-2l4 1-1 2 3-4 2 4 1 5 1-3h-2l2-2v-2l5-1c-1-3 0-6 1-8h1v4l2 1v2h2v-3l2-4-3 1-1-3 2 1 2-5-1 5 1 3 4 1 2-2c0 3 0 5 3 5-1 2-1 4 1 6l2-1-1 3 4-2v6h2l1 7 1-1 3 4-3-1 4 5-1 2h7l2 2 2-2v-2l-3-2h-3c2-3 1-7 0-10h2l3 4v-3l-1-1c1-1 1-3-1-3v-5h1c1-4 3-7 3-11l1 9-1 3 1-2 3 2-1 3 1 1 1-3c2 0 3 1 3 2 2-1 2-2 2-3h-3l-1-6h2l4-5 2 2v3l5-6v5h2l3 2 3-5 4 2c0-2-2-3-4-3l-2-2 4-2-2-1c3 0 2-3 1-4l3-2v-2h1v2h2l-1 4c2 0 3-2 4-3v3l-3 1v3l-3 1h2c0 2 0 4 2 5l2-2 1 2 2-1-1 5 3-1v5l4-3 1-3h3v3l2 2-1 4c2-1 3-2 3-4h2l2-10c1 1 2 3 4 2v3l-2 1 3 2 1-1v-6c4-2-2-5 1-8l3 3-1-3c4 2 3 5 4 10h2l-2 5 3-2c0-2 1-5 3-7v5c2 0 1-3 1-4l2 2 3-2 1-3h6l-2-2c4 2 7 6 7 10h2l3-9 3-1v4l4 2 1-2-1-7 1-9c2 1 1 4 1 7-1 2 0 4 1 6l4-5v-4h3v-3l1-1v3h1v-4l3-4c-2-2-2 1-2 2h-3l3-7h1l2 5-1 4 1 2-1 2h3l1-3c3-1 4-4 5-6l-2-1 2-2v-3h-1v-1l3 1v3l2 1v4l1 1v8l2 1 2-2v-3c1-2 2-1 4-2l1-2-3-2 2-4 3 1-1-4 2-1v-3l5-1-3 5 4-2c1 3 1 7 5 8l-1-3 1-1 1-4v6l2 2 4-10v3l1 2v5l1 1 1-4 1-2 2 1v-3h2v1l2 2 3-4 2 4v2h3l-1-3 1-3h1l2 6-1 1 3 2v-1l3-1-3 4 3-1v4l-2-1v1h5l-1-8v-6l2-7c3 4 0 8 1 12h-2c2 1 3 3 5 3l2-7 2 7c2 0 0 3 0 4 3-1 3-4 3-7l1-1 1 6-1 1h2l3-12h1l2 8c0 2 2 1 3 2l-2-2v-2c3 0 4-3 4-5h2v-3h4l-2-2v-4l2-2v3l2 2 1-4 2-2v3l4 3-1 3 4 1 4-5v-3c2 2 4 4 4 7h1l1-3h1l-1-2 4-2v4l4 3c2-4 2-9 2-14 2 2 1 4 2 6 2-1 1-4 1-7l2-1 1-6 2 8 2-1-2 3v4l3-3h-2l2-2 4 6-1-4 2-2 1 4 2-5 1-1c-2-3 0-7 1-10 2 3 1 6 2 9h2l-3 2 1 2h2v-2l7-7v-6l2 1 1 8h2v2h2l3 2v-2a400 400 0 00-1-2l3 1 1 3 2-5 2 2 2-3 2 1 2-6-1-1 2-1 2 3-1 5 4-2h1c2-2 3-4 5-3 2-1 3 1 4 2v4h2c1-3 1-7 4-8l-2-3 2-4-1-1-2-5c2 0 2 1 2 3l4-1c-2 2 0 5-1 8v2l2 4c2-5 1-10 4-14l2 7 2 1-3 3 3 1 2-3 1 1-1 4 4-2 5 2 1-1 1-7c3 2 2 5 1 7 2 0 3-2 4-3l1 3h4c-1-4 0-8-3-12l3-1-3-2v-2l3-4-1-4 3 3h2v3l3-1v2l2 2-2 1 7 6-1-2 2 1v1l2-1-4-2h3l-1-4 2-10-4-3v-2l1-5 1 2v1l1 2h2l-1-3v-7l2-3 2-1 1-3-2-2 1-3-1-4 1-3-2-2-1-3 4 2-2-5 3 2 4 5h3l2-4-5-2 1 3-2 1-4-7c1-2 0-5 2-7 2-3 1-7 0-10l3 1 4 2-1-8h2v-3l2 1 3-4c0 3 2 2 4 2l1 7 2-4v-5c1-3-7-11-2-13h-2c3-6 1-11 5-14 0 4 3 7 3 10 3-1 2-4 1-7 1-2 2-5 0-8l5-4-2-2 1-5-1-1v-5h2v4l3 1 1-4-2-1 1-7 2 3 1-3 3-3v-6h1c0 3 1 6 4 8-2-4 1-8 2-12l-1-2 2-3 1 1v-6h3l1 9 3 1-2 5 3-1v3l2 1v5l-2 1c0 4-2 7 1 10l4-7c0-2-2-5 0-6v-3l1-1c-1-2 0-3 1-4l2 3c2 1 0 3 0 5l4-1v14l-1 1-2 1v4l2-3 4 5v-3l3-1v-3l4-3 1 9h3c-1 1-2 3-4 3 1 3 0 6-1 9l4-2c0 5 1 10-1 14l1 8c2-3 4-6 2-9h3l1 3-1 3 2 3-1 6c-1 1-2 1-2 3 1 2-2 4-2 6l2 1v2l1-1-1-2c2-2 2-5 2-7l3 1-1-3h2l-2-5 4-5c2 3 0 6 0 9v2l-2 13 2 1-1 3c-1 1-2 3-1 4v6c3-1 3-4 1-7l4-3 2 2 1 3c-1 4-5 6-8 9l-6 2 2 2-10 3-4 3 3 1c1-3 6-3 9-3l-3 3h-5v2l5 2 3-3 1 4-2 4h3c1-3 3-6 0-8l2-1 4 6 2-1c0-3 1-5 3-8v2h2l3-4c1 3 2 6 0 9h2c0 3-4 4-6 7h5v6h3v3h2l1-5v-1l2-3 2 2-1 2 2 2a1034 1034 0 013 4h1l1 2-1 3h4l-1 1 1 4 1 1 1 9h2l3 2 1-6 1-2h1v2l3-2v-3l1 2c0 2 0 4 2 5l1-4 2-1 2-6 6 7h3l1-7h1l1 5-1 1 2 3-2 3h3v-4h2v-4l1-1v-5c2 1 3 2 3 4h2l4-4c1 1 3 3 3 6h3v-5l-1 1 4-7 1 1 3-4c1 2 2 6 4 7l2-3c-1-2 0-3 2-5v2l3-2h3l1 3h4v-4h2l1 6 2-1-1-3c2 0 3 0 4-2l4 5v3c4-2 2-6 4-11l2 5-1 2 3-3 3 1v5l2-4 4 3 2-2 2-7 3 3h1v-8l2 2-1 5 4-2c0 2 1 5 3 7l1-2c-2-2 0-3 2-4l2-4h4l-1 3h3l2 2-1 3 6-1v-2l3-3 2 3c1-1 2-3 4-3l2 4 3-2v-3c2-1 6-1 4-4l1-2 3 3v2l2 2-2 3 4 1v4l3-1v-2l7-2 3 4 2-2 2-10 3-3 1 1 2-2 1 2 2 8 2 2 4-1 1-7c2 1 2 3 3 5 2-2 5-5 8-5v-4l3 3 4-1-1 4h3l-2 4 2 4 3-3v-7c2 0 1 4 4 5l2-3 3 10c3-2 3-8 8-9l1-2 1-1 2 4c2-1 1-3 2-3 2 2-1 6 2 6v2l2-1 3-4v5l3-1c0-2-1-5 2-5l2 5 2-4h3v-7l3-1 2-7h2c1 2 2 5 1 7 1-1 3-4 5-2l-4 8h6v-2l4 4-1 2h2l1-6 3 3c2-1 3 1 3 3h1v-2l2-2 1 6 2-1v2l3-2v-8h2c0 2 2 2 4 1l1-9 1-1-1-2 5-2c-1-3 1-6-2-9l3-3 2 4v14l3-2v-2l4 5-1 1 2-1-1-2 2-2 2-2h2l1 6h3l1-1h4l-1-6-3-1v-4h3l1 2v-3h-3c-1-1-3-4-1-6l2 2h3l3-3-2-1-1-4h-2l-2-3v-2h2l2-5 1-1c2-13 0-10 4-12l2 5 6 1 1-4h-4l-2-2-3 1-2-3v-2h3c-5-5-2-5 0-7h-4l-4-7c2 0 5 2 7 0l-3-2v-2l-3-2v-3h3l2 2v-8h3l-1 3c2 3 5 7 3 11l7-1c0 1-2 12 3 13l3 2c1 2 1 4-1 6a1227 1227 0 019 0v4l2 1v-3l2-2v-3h3v3h3l-2 11 1 2c2 1 3 4 3 6l3 4 2-2-3-1v-2l-2-2 3-3-1-2-4-4h4v-4h2l2 6h2l1 3 4 1-1-4-5-6h3c0-2-1-7 2-7 2 2 2 5 2 8h2v864H0V397h2l-1-6c2-2 4-4 4-7l3-2h3l2 5-2 4 3 2-4 7 2 2 3-2c1 3 1 8 5 7l-2-2v-2h2l-1-6 6 2a13399 13399 0 001 5l4-1c-3-3-4-6-5-10l-1-2v-3l3-2c0-4 3-9-1-12l-1-6 3-1 1 3 7 4 1-4 2-1v-6l-8-5c1-4-2-8-1-12h3l4 5 5 7 5 1 2 3v-6h3l2 2h5l3 3h7v-4h4l2 4 5-2v-2l-3-3h-2c-2-2-4-2-6-2v-7h4c1-2 3-2 5-2v3h4v-3c-4-2-6-5-9-8l-2-8 3-1-1-3-6 4h-6l-2-3h-2c-2-2-4-6-1-8v-1l-3-2c-5 1-10 0-14-3l-9-2-1-3-3-2 1-5c2 0 4 2 6 4h2l2 1 9 1c1 3 4 1 6 1v-2l-3-3c-3 1-6 1-8-2h-7c0-2 0-4-2-5l-2-7h4l3 4h3l2 2c3 0 6 0 9 2l1-10 3 2h2l5 5c3-3 6 1-5-10v-2c-4-2-7-4-9-8v-2c1-2 3-1 5-2v-8h4c0 7-1 4 5 12l3 3 3 1 1 1h3v9h2l3 2 1 2 4 6h3l4-5c-4 0-1-3-2-5 0-2-2-3-3-4 0-3 0-7 2-10l-3-2v-6l4 1v-7l-6-1-2-2v-3l7-2c-3-3-7-1-10-4l2-6-5-1-4-5v-2l-2-1 1-8h3l1 5h3l2 3h3l3 4 1-4h3c0-2 4-2 5 0l1 8-3 6 7-1-2-3 2-3h5l1 5h2l2 2 2-7h2v7h3v8l4 4v-7l3-4 6 2 3 3 3-3h4v3l2-3h2v-3l4-1-2-2c-2-2-5-3-8-2l-12-3v-2l-3-4c-2 0-4 1-5-1l1-4h-3v-2h3l1 2h8c7 4 2 3 11 3l-3-4h-2l-4-4c-13 3-15-2-21-2l-8-5v-2c-2-2-4-5-4-8 2 0 4 0 5 2l6 3c-1-4-4-9-4-14l3 1c2 3 6 6 10 8h2l-1-5h3c1 2 4 2 5 3-1-3-2-7-1-10h-3l-3-3c-3 0-4-4-4-7l4-1v3h1c-1-3-2-6-1-9l5 3h3c-1-5-6-6-9-10h-2l-2-2v-5h5v-1h-3l-3-2-5-6-1-2c-3-3-7-6-8-11l2-2-4-1v-3l-1-2-1-1-2-6h2c5 5 11 10 15 17l1-3h3v10l6 2 4-4-2-1 2-9h4v3c3 2 6 4 7 7l3 1h4l1-2-1-4h3l-2-3-11-9-6-2v-2l-5-8v-3h3l4 5 5 3 5 1 1-2-1-1-1-2c-2-2-3-5-2-7l-4-10 3-1 4 5 3-1-1 4 1 2c2 1 5 3 7 1 0-2 2-3 4-3l-1 8h9c2 3 6 3 10 3l2 3 2 2h4l1-5h2c-1-5-3-10-7-12l-1-5c2 0 5 0 6-3l-5-4h-2l-2-2h-3v-3c4-1 7 2 11 2l2 2 2-5-2-2-2-1-3-3h-4v-3h9l1 4 2-1-1-5-3-2c-2-3-2-6-2-10h3l1 3 4 1 2-1h-2v-2c3-1 0-5 1-7l-1-13h3v2h1l1-9h3c1 3 2 6 1 9h2v-2l2-1v-6m-7 62l-3 2v3l5 2v-2h3v2h7l-2-4-4-1h-3l-2-2h-1m-40 18c0 2 1 5 3 4l2-1c-2 0-4-1-5-3m11 4v3l3 1v-3l-3-1m7 5l-2 1v6l3 2c1-2 3-1 4 0h4l1-4-2-1c-2-3-5-4-8-4m15 8c2 0 3-2 2-3l-2 3m-11 8l-1 2v2l4 2v-7l-3 1m-44 5l-2 2-1 1v3c1 1 2 4 4 2h4l2 4 1-2h2v-3l-5-5-2-2h-3m22 1c-1 2 3 0 0 0m32 3l2-1c-1-1-2 0-2 1m-36 10l2 2 4 1-4-4-2 1m32 4l-1 3v4h4c2 2 2 4 1 7h-7l1 2 2 1h1l3 2c4-2 7-2 10-2l1-1h1v-4h5l1 2h2l2-2h4v-3l-4-1c-2-2-5 0-8-2l-4-1v-1h-4v-2c-6 0-4-2-10-2m-3 25l-1 5 3 2-3 3 3 1h4v-2c-1 0-3 0-3-2 2 0 5 0 7-2l-8 1c-2-1-2-3-1-4l-1-2m-25 6v3l5-1v-2h-5m-42 11c-1 1 1 2 2 2 0-2-1-3-2-2m66 6l-2 3v7l3-2h3l-1-3 1-3h2l-2-2h-4m-37 3v2h2v3h2v2h1v4l3 1 4 4 1-2 2-2h8v2h3c0-2-1-6-3-4l-6 1v-2h-2c-1-7-4-6-7-6l-4-1-4-2m75 17v4h3l1-3-4-1m-57 3v4c-1 3-2 3-2 7l-4 3 5 1v4c1-1 2-3 4-3v-7l1-1c0-3 1-5 3-7h-5l-2-1m-18 16c2 0 2-2 2-3l-2 3m-43 0l-1 2h-3c2 4 2 3 2 8h-2v2l1 3h2v-5l3 1 2-4c1-2 0-5-1-7h-3m103 5c0 3 3-1 0 0m-14 6c-3 1-4 4-6 5l-6 1v2h3v2l3-2h4l2-2 3 1 1-3v-3l-4-1m11 5l1 2 1 4 3-3-2-2-3-1m-43 3c0 2 4 4 4 1l-4-1m14 3v2l3 2 1-3 1-4-5 3m22-2v2h-2l1 4 4-1h2v-2c-2 0-4-1-5-3m-47 6v1h-2v4h-2l2 1c2-1 5-2 6-5h4c-2-3-6-1-8-1m-46 5v1l3 2h2l4 6 3 1c-1 3 1 4 4 3l1-1c-2-2-1-5-1-7l1-3-1-2h-5l-2 1h-5l-2-1h-2m29-1v3h-2v4c2-2 5-1 7-1 0-3-3-4-5-6m67 1c-2 2-4 4-7 4 2 2 7 3 8-1h3v-3h-4m-56 4l4 3 2 1 2 2v3h3l1 2h2c0-3 3-2 5-1v-2c-4-3-11-5-14-5l1-2-6-1m76 1v2h1c0-2 2-1 3-2h-4m-65 1c2 2 5 1 8 2v-1l-8-1m-92 4c-1 3 3 0 0 0m71 6v2c1 2 4 1 5 2 3 1 3-2 3-4l-6 1v-2l-2 1m56-1l-1 2h-3v2l-1 1a448 448 0 002 2h2l3 3 1 4h6l1 3-3 2v3h-1l1 3h2l1-3h2l1 2 2-3-3-4 3-2v-4l-5-1v-4h2l6-1v4h4l3-1 3-2v-2l-2-2-3-1c-2-1-3 1-5 2h-8l-4 1-4-4h-2m-95 6l2-2h3v-1h-5v-2c-2 1-2 4 0 5m33-2l-2 1 2 3c1-1 2-3 0-4m99 1c2 1 2 0 2-1l-2 1m11 4h6l3-1v-1l-9 2m-60 1c-1 2 3 2 2 0h-2m-101 2l-6 1 3 5h3l3 2 3-2h2v2l3-4c-1-1-2-3-3-1h-4l-4-3m136 0l-2 1 4 1v-2h-2m-40 1c0 3 3-2 0 0m-72 3h-2l1 2c1-2 3-2 5-2l1-2c-2 0-4 0-5 2m9 0l3-1c0-2-3-1-3 1m38-1v2h2c0 2 1 4 4 5h3l2-1v-6l-2 2a1534 1534 0 01-6-2h-3m-4 2l2 1c0-1-1-2-2-1m-6 2c1 0 1 0 0 0m41 1l1 2h8l-2-3h-2c-1 2-4-2-5 1m-39-1v1c2 0 2 2 3 3h5c0-2-2-3-4-3l-4-1m32 0l-1 3v2h2v-2h2l-3-3m-58 2c-1 2 3 0 0 0m19 0c-1 2 3 0 0 0m-34 4l4 1h1v2h1l-1-3h-5m-10 2l2 4h3v-3l-5-1m90 3c0 2 2 3 3 3 2-2-1-3-3-3m-44 5l-1 2c3 0 4 2 5 3v-3l-4-2m-18 1v3l4 1v1h1c-1-2-2-5-5-5m13 6h-7l-1 4 3-2h7v2c3-1 4 2 3 5l4 1 1-2-2-3v-4l-2-1h-2v-4c-3 0-4 1-4 4m-26 4l2 2v-2c3 0 2-2 1-4-2 0-4 1-3 4m85-4c-1 2-3 1-5 1l-1 2-1 1v1c2-1 5-2 7 0v-3h2l-2-2m-15 2c2 2-1-1 0 0m25 0c1 0 1 0 0 0m-3 5h-2v1h6v3l-3 4h3c1 1 3 1 3 3l2-3 8-1v-3h2l-5-5-4 1h-6l-1-2-3 2m33-1c1 0 1 0 0 0m-108 0c0 2 3 3 4 4l5 4v-3c-1-2-3-3-5-3l-4-2m-12 6l-3 1 2 2v2c1 1 2 4 4 2h2l4 2 4-1c0 2-1 4-3 4 2 1 2 3 1 4 1 2 4 1 5 0l-2-2v-3l2-2a242 242 0 00-4-4v-3l2-2h-5l-2-1-7 1m26-1c0 3 3 3 5 4l-1-2c0-2-2-1-4-2m67 8c-3-1-1 3 0 0m-146 7c0 3 2-1 0 0m1 2c1 0 1 0 0 0m-1 3c1 3 3-1 0 0m35 7c0 1 0 2 2 1l-2-1m-42 2c-1 0-3 0-5 2v2c2 3 4 6 4 9l1 1v3h3v3h-2l6 4-3-4v-8l2-1v-3h2v-2h5l4 1-9-7h-8m100 1c1 1 1 1 0 0m-70 3l2 2 1 5h1v-3l1-2c0-3-3-2-5-2m-6 1c1 0 1 0 0 0m50 3v3h-6l2 1v1c2-2 5-1 7-2l4 5 5-1v2h1l1-4h-5c0-1-1-3-3-3l-3-2h-3m23-1c0 1 0 1 0 0m1 0c1 3 3-1 0 0m-79 1c1 1 1 1 0 0m25 7c0 1 0 1 0 0m2004 2c-1 1 1 2 2 1s-1-2-2-1m17 0l-1 3v2l-3 3v2l-1 4-1 2h-1v3l6-4a1160 1160 0 012-9c1-1 2 1 2 2l3 1v-3l2-1-2-2-1-3c-1 1-3 3-5 3l1-3h-1M65 401v3l-4 2 1 3 8-5c1-3-3-3-5-3m2008 0c0 1 0 1 0 0m-1839 1c0 3 3-1 0 0m-134 4c0 2 2-2 0 0m13 0l-4 1v1c2 0 5-1 6-3l-2 1m-69 0c0 1 0 1 0 0m123 0v3l2 2v-2h3l-1-2c-2 1-3-1-4-1m37 5c0 1 0 1 0 0l1-2-1 2m-18 1h2c1-2-3-2-2 0m-129 2l1 2h4l-1 4 6 3v-5l5-2h3l-1-5-3 2 1 3h-3l-4 1-2-6c-3 0-5 1-6 3m42 2c-1-2-2-2-4-2v-2c-2 2 2 3 4 4m1976-3l-1 2 1-2m30 4c1-1 5-3 2-4-2-1-2 2-2 4m-1936 0l-2 3 5 1v1h1l-1-4-3-1m-17 1c-1 2 2 3 3 2 1-2-2-3-3-2m1951 1c-2 1-2 1-1 2 2-1 2-1 1-2M78 420c-2 1-4 2-3 4h5c0-2 0-4-2-4m2000 1c-1 1 1 2 2 1s-1-2-2-1m8 0v2c2 0 2-2 0-2m-1937 0c0 3 2 4 4 3-1-2-2-3-4-3m4 1c1 0 1 0 0 0m1945 1c1 0 1 0 0 0m414 3l-3 3h2l-1-1 4-1-2-1m-396 1l-2 6 4 2v-2c-2-2 1-5-2-6m-1874 1l-4 2v3h-2c-3 2 1 3 2 5l-2 1-2 3h2c0 1 0 4-2 7l2 1-1 4-2 8 4-1-1-4 4 1-1-2 2-4c2 1 3 3 1 4h2v3c2-1 4-1 5-3h5l-1-3c-1-1 0-3 2-4v-3h2l2 3 3 2-1-7c0-2 2-2 3-2l-2-6 1-3-3-2c0 2-2 2-4 2a265 265 0 01-1-5l-2 1-11-1m1854 1c-1 1-3 2-3 4l4-2-1-2m-1891 4a1179 1179 0 002 2v3l-3 2h-2v3a332 332 0 017-1c3 1 5-2 5-4l-4-4h-3l-2-1m8 1c0 3 2-1 0 0m-25 2c1 1 1 1 0 0m36 3v3l-1 2a1018 1018 0 01-9-2v3h-1v1c1 0 2 0 3 2l7-2v-2l2 1 2 1v-9l-3 2m1844-2l1 4c2-1 0-4-1-4m47 0c0 1 0 2 1 1s1-1-1-1m-1939 1c-1 3 3 0 0 0m1885 0c-1 2 3 2 2 0h-2m-1726 3c1 0 3 0 2-1l-2 1m1729-1c0 1 0 1 0 0m43 2l3 2h2v-2h-5m21 2c1 0 1 0 0 0m-1976 1c-1 1 1 3 2 2s-1-3-2-2m10 0h4-4m1910 0l3 4c1-2 3 0 4 0-1-3-4-4-7-4m433 1c-1 1 1 4 2 2 1-1-1-3-2-2m-399 3l3-1c0-2-4-1-3 1m-1770-1c1 1 1 1 0 0m1706 3v4h3l-3-4m74 3v-3c-2 0-2 4 0 3m386-2c0 1 0 1 0 0m-2245 1c1 1 1 1 0 0m-90 1c0 1 0 1 0 0m1905 0c-1 1 0 2 1 1s0-1-1-1m-1737 3c-1 2 1-1 0 0m-83 0v2l1 3c-3 1-6 2-8 5 1 3 2 0 8-1h2v-6l-3-3m1819 0c0 2-2 4-4 5l2 1 2-2 2 1 2 2v-5l-1-2h-3m-1603 1c0 1 0 1 0 0m1656 3l1 1 3-2v-1l-4 2m-1941-1c-1 1 1 2 2 1s-1-2-2-1m294 5c1 1 1 1 0 0m1599 1c0 3 3-1 0 0m-1689 1c1 0 1 0 0 0m1684 1l2 2 3 3 1-3-4-4-2 2m55-1c1 0 1 0 0 0m-1659 1c0 1 3 2 3 0h-3m70 1c-2 2 3 0 0 0m-367 1c-1-1-1-1 0 0m2-1l-2 1v2h4v-3l-1 1-1-1m307 0c0 3 3-1 0 0m62 1c1 1 1 1 0 0m-98 2c1 0 1 0 0 0m94 1v2l-2 2h3l3-3-4-1m-386 1v2h2l4-1v-1h-6m1922 3h-3l2 4h-1l2 2v-5h3v-3l-3 2m-1420-1c0 2 2 4 3 3s-1-3-3-3m125 2c1 0 1 0 0 0m-299 2c1 0 1 0 0 0m2002 0c-1 0-2 2 0 2 0 0 2-2 0-2m-412 0c0 1 0 1 0 0m-1587 2c0 1 0 2 2 2h4c0 2-2 2-4 2v1h2l2 2h3l-2-3-1-5-6 1m16-1c-2 3 2 1 0 0m1576 2c-1 1 0 2 1 1l-1-1m33 4h-2l-2 5c2 0 3-2 3-4l4 4 1-3 3-4-7 2m-57 2l2 2v2l2 1v-2l-1-3h-3m62 2l5 1 1-1-2-2 1-1-5 3m-55-1c-2 2 2 0 0 0m3 1l1 2 1 1 2 3 3-3-3-3c-1-1-3-2-4 0m379 1c0 2 2 3 3 3v-4l-3 1m-1889 0c-1 3 3 1 0 0m-12 7h4l3-6-7 6m127-5c0 3 3-1 0 0m1724 0c0 1 1 2 2 1l-2-1m-322 0l2 5 2-1-4-4m9 1v3h2l2 3c2 1 4 2 4 4h1l-1-4-6-5h-1v-1h-1m8 4v-4c-2 1-1 4 0 4m-26-3c-1 1 0 4 1 2 2-1 0-3-1-2m-1409 1c1 1 1 1 0 0m1735 0c-1 3 3 1 0 0m-1732 2c-1 3 3 0 0 0m1412 0c1 1 1 1 0 0m22 3l2-1 3 1c-2-6-5-2-5 0m-26-2c-2 2 0 3 2 3 0-1-1-5-2-3m48 8l3-2v-1l5-1 1-3c-4 1-8 3-9 7m-1471-5c1 0 1 0 0 0m1441-1c0 2 1 3 2 3l-2-3m-11 3c2 0 5 1 5-2-2 0-4 0-5 2m31-2c-1 3 3 1 0 0m-1461 2c2 1 3 2 5 0-2-1-5-2-5 0m9-1l-1 3 3-2-2-1m1429 4v2c2 0 4-2 6 0h2l-5-5-3 3m76-3c-1 1 0 3 1 2s0-3-1-2m92 0c-1 1 0 2 1 1s0-1-1-1m-154 2c-1 1 2 2 2 1l-2-1m-1 3c0 1 1 2 2 1s-1-2-2-1m29 0c1 1 1 1 0 0m-1316 5l2-1c-1-1-2 0-2 1m-92-1c-2 3 2 1 0 0m1396 4c1 0 1 0 0 0m-1299 8c0 1 0 1 0 0m180 4c-1 1 0 1 1 1l-1-1m1049 0v1h4v-1h-4m-1060 4c0 3 2-1 0 0m-170 3c0 1 0 1 0 0m1207 0c-1 1 0 3 1 3 1-1 0-3-1-3m-1210 3l2-2c-2 0-2 0-2 2m-3 0v2l-4-1c-2-2-4 2-2 3h2l4-1a1987 1987 0 002-3h-2m149 6c1 0 1 0 0 0m931 16l-2-1c0 2 2 3 3 4 1-2 2-4 0-5l-1 2m-661 1l1-2c-1 1-2 1-1 2m-128 7c-1 2 3 0 0 0m751 1l1 4c2-1 1-4-1-4m-742 1c1 1 1 1 0 0m30 0c2 2 0 2-1 3l3 1v-4h-2m662 0c-1 3 3 1 0 0m56 4l1 4c2-1 2-2 2-4h-3m-63 1c0 2 1 2 2 2 0-2 0-2-2-2m-659 2c1 3 3-1 0 0m241 1c-1 2 3 2 2 0h-2m119 11l-1 3c2 0 3-2 3-4l-1-5-1 6m78-4c0 2 2-2 0 0m-189 2c-1 2 0 2 1 2 1-2 0-2-1-2m185 0c0 2 0 2 2 2 0-2 0-2-2-2m196 1c-2 3 2 0 0 0m-191 3c1 0 1 0 0 0m4 3h3v-4c-2 1-3 2-3 4m180-2c-1 2 0 2 1 2 1-2 0-2-1-2m-139 2c0 1 2 3 4 2l-4-2m-247 2c-1 1 1 2 2 1s-1-2-2-1m216 0c-1 0-3 1-2 2s4-2 2-2m77 0c-1 2 3 0 0 0m84 1c-1 1-2 2 0 2v-2m-69 2h2c0-2-3-2-2 0m-205 1c-1 1 0 2 1 1s0-1-1-1m190 0c0 2 2-2 0 0m-399 1l-1 4-3-2-1 4h4l-1 3 3 1 1-3-2-2v-4l3 2c0-2-1-4-3-3m237 1l1 1c1-1 0-2-1-1m148-1v5l4 1-1-2 1-2h-2l-2-2m-346 3c1 0 2 0 2-2-2 0-2 1-2 2m163-2l2 6 3-1 2-1h-5l1-4h-3m119 0l2 3 2-1-4-2m-171 2l1 1c1-1 0-2-1-1m179-1c-1 1-2 2-1 3s3-3 1-3m-288 1v2l4 1c-1-2-2-3-4-3m113 0c1 1 1 1 0 0m282 0c-2 3 2 0 0 0m-294 1v2l-5 2h2v5c2-1 4-2 4-4l4-1c-3-1-3-3-5-4m194 2c1 0 2-1 1-2l-1 2m-180-1c0 3 2-1 0 0m-116 2l2 1c0-1 0-2-2-1m68-1v3c2 0 3-1 3-2l-3-1m104 1c1 0 1 0 0 0m-216 0l-1 1c1 3 5-1 1-1m127 2l3-1-3 1m121-2c0 2 0 2 2 2 0-2 0-2-2-2m-75 1c0 1 0 1 0 0m37 0c-1 1 0 4 2 3 1-1 0-4-2-3m9 1v3c2 0 3-2 3-4l-3 1m173-1v3l-3 2 2 1 4-2-1-2v-2h-2m-252 1c-1 2 3 0 0 0m-49 2c-1 1 0 3 1 2s0-3-1-2m63 0c-1 1 0 3 1 2s0-3-1-2m-111 2c-2 0-2 1 0 1v-1m104 0c1 0 1 0 0 0m-148 2c1 3 3-1 0 0m96 0c1 1 1 1 0 0m37 4h3v-3l-3 3m-8 3c2 1 3-2 2-2-1-1-3 1-2 2m107-2c0 1 0 1 0 0m-32 3c1 0 3-1 2-2 0-1-2 0-2 2m-70-1c1 3 3-1 0 0m-54 3h-2c0 2 2 4 0 5v2h3v-2l2-2-1-3h2v-2l-4 2m305-1l-1 3v2c2 1 2 3 3 5l4-1c-1-2-1-4 1-5v-2l-7-2m-338 1c-1 2 0 2 1 2 1-2 0-2-1-2m139 7c-1 1-1 3 1 2 1 0 1-2-1-2m-53 1c-1 1 0 3 1 2 1 0 0-3-1-2m2 2c0 1 0 2 2 1 0-1 0-2-2-1m-58 2c-2 1-2 1-1 2 2-1 2-1 1-2m107 0c0 1 0 1 0 0m73 13l3 3 2-2 1-4c-2-2-3 2-6 3m3 7c1 0 1 0 0 0" fill="#46be2f"/>
</svg>
